<?xml version="1.0" encoding="utf-8"?>
<!-- Generator: Adobe Illustrator 19.0.0, SVG Export Plug-In . SVG Version: 6.00 Build 0)  -->
<svg version="1.1" id="Шар_1" xmlns="http://www.w3.org/2000/svg" xmlns:xlink="http://www.w3.org/1999/xlink" x="0px" y="0px"
	 viewBox="430 174 672 173" style="enable-background:new 430 174 672 173;" xml:space="preserve">
<style type="text/css">
	.st0{fill:#FBB03B;}
</style>
<g id="Шар_2">
	<g id="Слой_4">
		<path class="st0" d="M527.4,285.5c-16.8,0-33.6,0-50.4,0c-3.3,0-6.5-0.2-9.7-0.7c-1.7-0.3-3.4-0.3-5.1-0.5
			c-0.8-0.1-1.7-0.3-2.5-0.5c-1.5-0.5-2.6-1.8-2.8-3.4c-0.1-0.7-0.2-1.4-0.1-2.1c0-5,0-9.9,0-14.9c0-0.5,0-1,0-1.5
			c0.2-2.1,1.8-3.9,3.9-4.2c3-0.4,6.1-0.7,9.1-1.1c0.7,0,1.4-0.1,2-0.3c0.5-0.2,0.9-0.5,1.2-0.9c0.3-0.4,0.5-0.9,0.6-1.4
			c1.1-3.4,2.4-6.8,4.1-9.9c0.6-0.9,0.5-2-0.2-2.8c-1.4-1.7-2.7-3.5-4.1-5.3c-0.7-0.9-1.5-1.9-2.2-2.8c-1.6-2.3-1.6-4.1,0.2-6.1
			c4.2-4.3,8.4-8.5,12.7-12.7c1.4-1.4,3.6-1.5,5.2-0.3c0.6,0.4,1.1,0.8,1.6,1.2l5.7,4.4c0.7,0.6,1.3,1.1,2.1,1.5
			c0.4,0.2,0.9,0.3,1.4,0.2c1.5-0.7,3-1.5,4.6-2.2c1.1-0.5,2.2-0.9,3.3-1.4c1.5-0.7,3.4-0.7,4.6-1.9c0.3-1.7,0.6-3.3,0.9-5
			s0.3-3,0.5-4.6c0.1-1,0.3-2,0.5-3c0.5-1.7,2-2.9,3.8-3c0.7,0,1.4,0,2.1,0h15.3c3,0.1,4.6,1.3,4.9,4.2c0.3,2.9,0.7,5.8,1.1,8.7
			c0.1,0.8,0.2,1.7,0.4,2.5c0.1,0.3,0.3,0.6,0.6,0.8c0.4,0.3,0.9,0.5,1.4,0.6c3.4,1,6.8,2.4,9.9,4.1c1,0.7,2.4,0.5,3.3-0.4
			c2.1-1.7,4.3-3.4,6.5-5.1c0.8-0.6,1.6-1.2,2.5-1.8c1.4-0.7,3.1-0.6,4.3,0.3c0.3,0.2,0.5,0.4,0.8,0.6l12.4,12.3
			c1,1,1.4,2.4,1.1,3.8c-0.1,0.7-0.4,1.3-0.7,1.9c-1.4,1.9-2.9,3.8-4.4,5.7c-0.8,1.1-1.7,2.2-2.5,3.3c-0.5,0.5-0.5,1.3-0.2,1.9
			c1.9,3.5,3.4,7.1,4.6,10.9c0.2,1,1.1,1.8,2.1,1.9l9.1,1.2c0.7,0.1,1.4,0.1,2,0.3c1.7,0.4,3,1.9,3.2,3.6c0,0.7,0,1.4,0,2.1
			c0,5,0,9.9,0,14.9c0,0.3,0,0.7,0,1c0.1,2.3-1.5,4.4-3.9,4.7c-0.5,0.1-1,0.2-1.5,0.2c-1,0.1-2.1,0.1-3,0.3
			c-5.8,0.9-11.6,1.2-17.4,1L527.4,285.5L527.4,285.5z M508.9,273.2c0.2,0,0.3-0.1,0.5-0.2c1.2-0.7,2.2-1.7,2.8-2.9
			c0.2-0.5,0.2-1,0-1.5s-0.5-0.9-0.8-1.3c-0.6-1.4,0.1-3.1,1.6-3.7h0.1c0.5-0.2,1-0.2,1.5-0.4c0.7-0.2,1.1-0.8,1.2-1.5
			c0.1-1,0.1-2,0-3c-0.1-0.7-0.5-1.3-1.2-1.5c-0.5-0.2-1-0.2-1.5-0.4c-1.5-0.6-2.2-2.2-1.7-3.7c0.2-0.5,0.6-0.9,0.8-1.3
			c0.3-0.6,0.2-1.3-0.2-1.8c-0.8-0.9-1.7-1.7-2.6-2.4c-0.3-0.2-0.6-0.3-1-0.2c-0.5,0.2-0.9,0.4-1.4,0.7c-2.1,1-3.6,0.4-4.3-1.8
			c0-0.2,0-0.3-0.1-0.5c-0.4-1.3-0.9-1.7-2.2-1.7c-1,0-2,0-3,0.2c-0.3,0.1-0.6,0.3-0.8,0.6c-0.2,0.5-0.4,1-0.5,1.5
			c-0.3,1.5-1.8,2.5-3.3,2.2c-0.4-0.1-0.8-0.2-1.1-0.5c-0.3-0.2-0.6-0.4-0.9-0.5c-0.6-0.3-1.4-0.2-1.9,0.2c-0.8,0.6-1.5,1.4-2.2,2.1
			c-0.5,0.5-0.5,1.3-0.2,1.9c0.4,0.6,0.7,1.2,1,1.8c0.2,1.2-0.3,2.4-1.3,3c-0.6,0.3-1.3,0.4-1.9,0.6c-0.7,0.2-1.1,0.8-1.1,1.5
			c-0.1,1-0.1,2,0,3c0,0.7,0.5,1.3,1.2,1.5c0.5,0.2,1,0.2,1.5,0.4c1.4,0.6,2.1,2.2,1.6,3.6c0,0.1,0,0.1-0.1,0.2
			c-0.2,0.5-0.5,0.9-0.8,1.3c-0.4,0.6-0.3,1.5,0.2,2c0.7,0.8,1.4,1.5,2.2,2.2c0.5,0.5,1.3,0.5,1.9,0.2c0.5-0.2,0.8-0.6,1.3-0.8
			c1.5-0.6,3.1,0.1,3.8,1.5c0,0,0,0,0,0.1c0.2,0.5,0.3,1,0.4,1.5c0.2,0.7,0.8,1.1,1.5,1.2c0.7,0,1.4,0,2.1,0c1.9,0,2.2-0.3,2.8-2.2
			c0.2-1,1-1.8,2-2.1c0.8-0.3,1.7-0.2,2.4,0.4C507.5,273,508.2,273.3,508.9,273.2 M569.1,250.7c0-0.2,0-0.4-0.2-0.5
			c-0.9-1-1.9-1.9-2.9-2.8c-0.5-0.2-1-0.2-1.4,0c-0.5,0.1-0.9,0.6-1.3,0.8c-0.5,0.2-1,0.3-1.5,0.2c-1.2-0.3-2.4-0.7-2.5-2.2
			c-0.2-2-0.9-2.2-2.7-2.3c-0.9,0-1.7,0-2.6,0.1c-0.5,0.1-0.9,0.4-1.1,0.9c-0.1,0.3-0.1,0.7-0.2,1c-0.3,1.6-1.8,2.7-3.4,2.4
			c-0.3-0.1-0.6-0.2-0.9-0.3c-0.3-0.1-0.5-0.4-0.9-0.6c-0.6-0.4-1.4-0.4-1.9,0.1c-0.9,0.8-1.7,1.6-2.5,2.6c-0.2,0.4-0.3,1-0.1,1.4
			c0.2,0.5,0.5,0.9,0.7,1.3c0.7,1.4,0.1,3.1-1.3,3.8l0,0c-0.6,0.3-1.3,0.4-1.9,0.7c-0.3,0.1-0.5,0.4-0.7,0.7c-0.5,1.5-0.5,3.1,0,4.6
			c0.2,0.3,0.4,0.5,0.7,0.7c0.5,0.2,1,0.2,1.5,0.4c1.5,0.5,2.3,2.1,1.8,3.5c-0.1,0.2-0.2,0.4-0.3,0.6c-0.2,0.3-0.4,0.5-0.6,0.9
			c-0.4,0.8-0.3,1.7,0.4,2.3c0.6,0.6,1.2,1.2,1.8,1.8c0.7,0.6,1.6,0.6,2.4,0.1c0.2-0.1,0.3-0.2,0.4-0.3c2.3-1.1,3.7-0.5,4.6,2
			c0.1,0.3,0.2,0.7,0.3,1c0.2,0.3,0.4,0.5,0.7,0.7c1.5,0.5,3.1,0.5,4.6,0c0.3-0.1,0.5-0.4,0.7-0.7c0.2-0.3,0.3-0.6,0.3-1
			c0-1.2,0.8-2.2,1.9-2.4c1-0.4,2-0.2,2.9,0.3c1.5,0.9,2,0.8,3.1-0.3c0.6-0.6,1.1-1.2,1.6-1.9c0.5-0.5,0.5-1.3,0-1.9
			c-0.2-0.3-0.4-0.6-0.5-0.9c-0.8-1.3-0.4-3,0.9-3.7c0.2-0.1,0.4-0.2,0.6-0.3c0.5-0.2,1-0.2,1.5-0.4c0.6-0.2,1.1-0.8,1.2-1.5
			c0.1-1,0.1-2,0-3c0-0.4-0.5-0.8-0.8-1.2c-0.1-0.1-0.3-0.2-0.4-0.2c-1.1-0.4-2.3-0.5-2.9-1.7c-0.8-1.5,0-2.6,0.7-3.7
			C568.9,251.4,569,251.1,569.1,250.7"/>
		<path class="st0" d="M527.4,338.8c-2.2,0-4.5,0-6.7,0c-2.9,0-3.3-0.3-3.6-3c-0.4-3.6-0.9-7.1-1.2-10.7c-0.1-1.1-0.8-2-1.9-2.2
			c-3.3-0.9-6.5-2.1-9.6-3.5c-1.7-0.8-3.4-1.7-5.1-2.5c-2.1,0.8-3.6,2.5-5.4,3.8c-2.1,1.5-4.1,3.1-6.1,4.7c-0.6,0.4-1.4,0.3-1.9-0.1
			c-0.8-0.7-1.5-1.4-2.2-2.1c-3.4-3.4-6.8-6.8-10.1-10.2c-0.6-0.6-0.7-1.6-0.1-2.3c1.7-2.2,3.4-4.3,5-6.5c0.9-1.2,1.9-2.4,2.8-3.7
			c0.4-0.6,0.5-1.3,0.1-1.9c-0.5-0.9-0.9-1.8-1.4-2.7c-0.4-0.9-1-2.2-1.5-3.3c-0.1-0.5,0.1-1,0.6-1.2c0.3-0.1,0.7-0.1,1-0.2h13.4
			c1,0,2,0.5,2.6,1.3c1,1.4,2.1,2.7,3.2,4c13.9,15.7,37.9,17.2,53.6,3.3c1.8-1.6,3.4-3.3,4.8-5.1c3.2-4.1,2.8-3.5,7.2-3.5
			c3.8,0,7.5,0,11.3,0.1c0.4,0,0.8,0.8,0.7,1.2c-0.1,0.4,0,0.3-0.1,0.5s-0.3,0.6-0.4,0.9l-2.6,5.5c0.8,2.4,2.7,3.9,4.1,5.8
			c1.2,1.7,2.6,3.2,3.8,4.8c0.9,0.8,1,2.1,0.2,3c-0.1,0.1-0.1,0.1-0.2,0.2c-3.9,3.9-7.7,7.7-11.6,11.6c-1.1,1.1-1.7,1.1-3.1,0
			c-2.3-1.8-4.6-3.6-6.9-5.3l-2-1.6c-0.8-0.9-2.2-1.1-3.3-0.4c-0.3,0.2-0.6,0.4-0.9,0.5c-3.6,2-7.4,3.5-11.4,4.6
			c-1.7,0.3-3,1.8-2.9,3.6c-0.1,2.1-0.5,4.1-0.7,6.1c-0.2,1.5-0.3,3-0.6,4.6c-0.2,1.5-1,2-2.5,2c-2.7,0-5.5,0-8.2,0L527.4,338.8z"/>
		<path class="st0" d="M608.2,183c4.1,0,7.4,3.2,7.6,7.3c0,4.2-3.4,7.6-7.6,7.6c-0.1,0-0.2,0-0.4,0c-0.3,0-0.7-0.1-1-0.1
			c-1-0.3-2-0.9-2.9-0.8c-1.4,0.2-2.1,1.7-2.9,2.7c-4.4,5-8.7,10.1-13.1,15.1c-0.6,0.6-1.2,1.2-1.8,1.8c-0.3,0.2-0.6,0.2-0.9,0
			c-1.1-1-2.2-2.1-3.2-3.2c-0.2-0.3-0.2-0.6,0-0.9c0.6-0.6,1.2-1.2,1.9-1.8l14.3-12.4c1.1-0.9,2.1-1.8,3-2.8
			c0.3-0.4,0.5-0.9,0.4-1.4c-0.1-0.8-0.5-1.6-0.7-2.5c-0.7-4,1.9-7.8,5.9-8.6C607.3,183.1,607.7,183,608.2,183"/>
		<path class="st0" d="M454.5,189.8c0.1,1.4-0.2,2.8-0.8,4.1c-0.3,0.6-0.1,1.4,0.4,1.9c0.6,0.6,1.3,1.1,1.9,1.7
			c4.9,4.2,9.8,8.5,14.8,12.7c0.9,0.8,1.7,1.6,2.6,2.4c0.3,0.3,0.3,0.6,0,0.9c-0.9,1-1.9,2-2.8,2.9c-0.5,0.5-1.2,0.4-1.7,0l-0.1-0.1
			c-0.9-1-1.8-2-2.7-3c-3.7-4.3-7.4-8.5-11.1-12.8c-0.9-1-1.8-2.1-2.8-3c-0.4-0.3-0.9-0.4-1.4-0.3c-0.8,0.2-1.6,0.6-2.4,0.8
			c-4,0.8-7.9-1.9-8.7-5.9c-0.1-0.4-0.1-0.8-0.1-1.2c-0.2-2.8,1.4-5.5,3.9-6.7c3.6-2,8-0.7,10,2.9c0.1,0.2,0.2,0.4,0.3,0.7
			C454.1,188.2,454.3,189,454.5,189.8"/>
		<path class="st0" d="M499.2,268.2c-4.4-0.1-7.9-3.7-7.9-8.1c0.1-4.4,3.7-7.9,8.1-7.9c4.3,0.1,7.8,3.5,7.8,7.8
			c0.1,4.4-3.4,8-7.8,8.2C499.5,268.2,499.3,268.2,499.2,268.2"/>
		<path class="st0" d="M556,252.3c4.4-0.1,8,3.4,8.1,7.8c0.1,4.4-3.4,8-7.8,8.1c-4.4,0.1-8-3.4-8.1-7.8S551.6,252.4,556,252.3
			L556,252.3"/>
	</g>
</g>
<g>
	<path class="st0" d="M717.4,262.3v15.3h-62.2V188h61v15.3h-43.6v21.6h37.7V239h-37.7v23.3H717.4z"/>
	<path class="st0" d="M725.5,244.5c0-4.6,0.8-9,2.4-13.1c1.6-4.1,3.9-7.7,6.9-10.8c3-3.1,6.7-5.6,11-7.4s9.1-2.8,14.5-2.8
		c7.2,0,13.4,1.6,18.5,4.7s8.9,7.2,11.4,12.2l-16.5,5c-1.4-2.4-3.3-4.3-5.7-5.6c-2.4-1.3-5-2-7.8-2c-2.4,0-4.7,0.5-6.8,1.5
		c-2.1,1-3.9,2.3-5.5,4c-1.6,1.7-2.8,3.8-3.7,6.2c-0.9,2.4-1.3,5.1-1.3,8.1c0,2.9,0.5,5.6,1.4,8.1c0.9,2.4,2.2,4.5,3.7,6.3
		c1.6,1.8,3.4,3.1,5.5,4.1s4.3,1.4,6.7,1.4c3,0,5.8-0.8,8.4-2.3c2.6-1.5,4.3-3.4,5.4-5.5l16.5,5c-2.3,5-6,9.2-11.2,12.4
		c-5.2,3.2-11.5,4.8-18.8,4.8c-5.4,0-10.2-0.9-14.5-2.8c-4.3-1.8-7.9-4.3-11-7.5c-3-3.2-5.4-6.8-7-11
		C726.3,253.4,725.5,249,725.5,244.5z"/>
	<path class="st0" d="M833.8,278.8c-5.4,0-10.2-0.9-14.5-2.8c-4.3-1.8-7.9-4.3-10.9-7.5s-5.3-6.8-6.9-10.9c-1.6-4.1-2.4-8.4-2.4-13
		s0.8-9,2.4-13.1c1.6-4.1,3.9-7.8,6.9-10.9c3-3.2,6.6-5.7,10.9-7.5c4.3-1.8,9.1-2.8,14.5-2.8s10.2,0.9,14.4,2.8
		c4.2,1.8,7.9,4.3,10.8,7.5c3,3.2,5.3,6.8,6.9,10.9c1.6,4.1,2.4,8.5,2.4,13.1c0,4.5-0.8,8.9-2.4,13c-1.6,4.1-3.9,7.8-6.8,10.9
		c-2.9,3.2-6.6,5.7-10.8,7.5C844,277.9,839.2,278.8,833.8,278.8z M816.5,244.6c0,2.9,0.4,5.6,1.3,8s2.1,4.5,3.7,6.2
		c1.6,1.8,3.4,3.1,5.5,4.1s4.4,1.4,6.8,1.4c2.4,0,4.7-0.5,6.8-1.4c2.1-1,3.9-2.3,5.5-4.1c1.6-1.8,2.8-3.9,3.7-6.3s1.3-5.1,1.3-8.1
		c0-2.9-0.4-5.5-1.3-7.9c-0.9-2.4-2.1-4.5-3.7-6.3c-1.6-1.8-3.4-3.1-5.5-4.1s-4.4-1.5-6.8-1.5c-2.4,0-4.7,0.5-6.8,1.5
		s-3.9,2.4-5.5,4.2c-1.6,1.8-2.8,3.9-3.7,6.3C817,239.1,816.5,241.8,816.5,244.6z"/>
	<path class="st0" d="M955.7,254.4c0,3.8-0.8,7.1-2.3,10s-3.6,5.3-6.2,7.2c-2.6,1.9-5.7,3.4-9.2,4.4s-7.2,1.5-11.2,1.5h-43.2V188
		h47.9c3.1,0,5.9,0.7,8.4,2s4.7,3.1,6.4,5.2c1.8,2.1,3.1,4.6,4.1,7.3c1,2.7,1.5,5.5,1.5,8.3c0,4.4-1.1,8.5-3.3,12.3
		s-5.4,6.7-9.6,8.5c5.1,1.5,9.2,4.2,12.2,8.1C954.2,243.7,955.7,248.6,955.7,254.4z M901,202.9v22.6h23.2c2.9,0,5.4-1,7.5-3
		s3.1-4.8,3.1-8.3c0-3.4-0.9-6.2-2.8-8.2s-4.2-3-7-3h-24V202.9z M938.2,251.2c0-1.6-0.3-3.1-0.8-4.6s-1.3-2.8-2.2-3.8
		c-0.9-1.1-2-2-3.3-2.6s-2.6-0.9-4.2-0.9H901v23.6h25.8c1.6,0,3.1-0.3,4.5-0.9s2.6-1.4,3.6-2.5s1.8-2.3,2.4-3.7
		C937.9,254.3,938.2,252.8,938.2,251.2z"/>
	<path class="st0" d="M1001.4,278.8c-5.4,0-10.2-0.9-14.5-2.8c-4.3-1.8-7.9-4.3-10.9-7.5s-5.3-6.8-6.9-10.9c-1.6-4.1-2.4-8.4-2.4-13
		s0.8-9,2.4-13.1c1.6-4.1,3.9-7.8,6.9-10.9c3-3.2,6.6-5.7,10.9-7.5c4.3-1.8,9.1-2.8,14.5-2.8s10.2,0.9,14.4,2.8
		c4.2,1.8,7.9,4.3,10.8,7.5c3,3.2,5.3,6.8,6.9,10.9c1.6,4.1,2.4,8.5,2.4,13.1c0,4.5-0.8,8.9-2.4,13c-1.6,4.1-3.9,7.8-6.8,10.9
		c-2.9,3.2-6.6,5.7-10.8,7.5C1011.6,277.9,1006.7,278.8,1001.4,278.8z M984.1,244.6c0,2.9,0.4,5.6,1.3,8c0.9,2.4,2.1,4.5,3.7,6.2
		c1.6,1.8,3.4,3.1,5.5,4.1s4.4,1.4,6.8,1.4c2.4,0,4.7-0.5,6.8-1.4c2.1-1,3.9-2.3,5.5-4.1c1.6-1.8,2.8-3.9,3.7-6.3s1.3-5.1,1.3-8.1
		c0-2.9-0.4-5.5-1.3-7.9c-0.9-2.4-2.1-4.5-3.7-6.3c-1.6-1.8-3.4-3.1-5.5-4.1s-4.4-1.5-6.8-1.5c-2.4,0-4.7,0.5-6.8,1.5
		s-3.9,2.4-5.5,4.2c-1.6,1.8-2.8,3.9-3.7,6.3C984.5,239.1,984.1,241.8,984.1,244.6z"/>
	<path class="st0" d="M1089.1,274.1c-2.3,1-5,2-8.3,3c-3.3,1-6.7,1.5-10.3,1.5c-2.4,0-4.6-0.3-6.6-0.9c-2.1-0.6-3.9-1.5-5.4-2.8
		c-1.6-1.3-2.8-3-3.7-5c-0.9-2.1-1.4-4.6-1.4-7.5v-38h-8.7v-13h8.7V190h16.9v21.4h13.9v13h-13.9v32.3c0,2.4,0.6,4,1.8,5
		s2.7,1.4,4.5,1.4s3.5-0.3,5.2-0.9c1.7-0.6,3-1.1,4-1.5L1089.1,274.1z"/>
	<path class="st0" d="M647.9,308l7.6,15.7l9.8-16.1h3.2L657,326.4v11.1h-2.9v-11.2l-9.4-18.3H647.9z"/>
	<path class="st0" d="M677.8,337.9c-1.6,0-3.1-0.3-4.4-0.9c-1.3-0.6-2.5-1.4-3.4-2.5c-1-1-1.7-2.2-2.2-3.6s-0.8-2.8-0.8-4.3
		s0.3-3,0.8-4.4s1.3-2.6,2.3-3.6s2.1-1.9,3.4-2.5c1.3-0.6,2.8-0.9,4.3-0.9c1.6,0,3,0.3,4.3,0.9c1.3,0.6,2.5,1.4,3.4,2.5
		c1,1,1.7,2.2,2.3,3.6s0.8,2.8,0.8,4.4c0,1.5-0.3,3-0.8,4.3c-0.5,1.4-1.3,2.6-2.2,3.6c-1,1-2.1,1.9-3.4,2.5S679.4,337.9,677.8,337.9
		z M669.9,326.7c0,1.2,0.2,2.4,0.6,3.4s1,2,1.7,2.8s1.6,1.4,2.5,1.9c1,0.4,2,0.7,3.1,0.7c1.1,0,2.1-0.2,3.1-0.7s1.8-1.1,2.5-1.9
		s1.3-1.7,1.7-2.8c0.4-1.1,0.6-2.2,0.6-3.4c0-1.2-0.2-2.3-0.6-3.4s-1-2-1.7-2.8s-1.6-1.4-2.5-1.9c-1-0.5-2-0.7-3.1-0.7
		c-1.1,0-2.1,0.2-3.1,0.7s-1.8,1.1-2.5,1.9s-1.3,1.8-1.7,2.8C670.1,324.3,669.9,325.4,669.9,326.7z"/>
	<path class="st0" d="M700.3,337.9c-2.4,0-4.2-0.8-5.3-2.4c-1.2-1.6-1.7-3.9-1.7-7.1v-12.9h2.9V328c0,5,1.7,7.4,5.1,7.4
		c0.8,0,1.7-0.1,2.5-0.4s1.6-0.7,2.2-1.2c0.7-0.5,1.3-1.2,1.8-1.9s1-1.6,1.3-2.5v-13.8h2.9v18.2c0,0.8,0.3,1.2,1,1.2v2.5
		c-0.3,0.1-0.6,0.1-0.8,0.1c-0.2,0-0.4,0-0.4,0c-0.7,0-1.2-0.3-1.6-0.7c-0.4-0.4-0.6-1.1-0.6-1.8v-2.5c-1,1.7-2.2,3-3.9,4
		C703.9,337.5,702.2,337.9,700.3,337.9z"/>
	<path class="st0" d="M729.4,318.1c-1.9,0.1-3.6,0.6-5,1.6c-1.4,1-2.4,2.4-3,4.2v13.6h-2.9v-21.9h2.7v5.3c0.8-1.7,1.9-3,3.3-4
		s2.8-1.4,4.4-1.4c0.2,0,0.4,0,0.5,0V318.1z"/>
	<path class="st0" d="M761,313.3c-0.8-1-2-1.7-3.4-2.3c-1.4-0.6-3-0.9-4.8-0.9c-2.6,0-4.6,0.5-5.8,1.5c-1.2,1-1.8,2.3-1.8,4.1
		c0,0.9,0.2,1.6,0.5,2.2c0.3,0.6,0.8,1.1,1.5,1.5c0.7,0.4,1.5,0.8,2.6,1.1c1.1,0.3,2.3,0.6,3.7,0.9c1.6,0.3,3,0.7,4.3,1.1
		s2.4,0.9,3.3,1.6c0.9,0.6,1.6,1.4,2.1,2.3s0.7,2,0.7,3.4s-0.3,2.6-0.8,3.6s-1.3,1.8-2.2,2.5c-1,0.7-2.1,1.2-3.4,1.5
		s-2.8,0.5-4.3,0.5c-4.6,0-8.6-1.4-12-4.3l1.5-2.4c0.5,0.6,1.2,1.1,1.9,1.6c0.7,0.5,1.6,0.9,2.5,1.3c0.9,0.4,1.9,0.7,2.9,0.9
		c1,0.2,2.1,0.3,3.3,0.3c2.4,0,4.2-0.4,5.6-1.3c1.3-0.9,2-2.1,2-3.9c0-0.9-0.2-1.7-0.6-2.3c-0.4-0.6-0.9-1.2-1.7-1.6
		c-0.8-0.5-1.7-0.9-2.8-1.2c-1.1-0.3-2.4-0.7-3.9-1c-1.6-0.4-2.9-0.7-4.1-1.1s-2.2-0.9-3-1.5s-1.4-1.3-1.8-2.1
		c-0.4-0.8-0.6-1.8-0.6-3c0-1.4,0.3-2.6,0.8-3.7s1.3-2,2.2-2.7c1-0.7,2.1-1.3,3.4-1.6c1.3-0.4,2.7-0.6,4.3-0.6c2,0,3.8,0.3,5.3,0.9
		c1.6,0.6,3,1.5,4.2,2.5L761,313.3z"/>
	<path class="st0" d="M801,337.5h-2.9v-12.2c0-2.5-0.4-4.4-1.2-5.6s-2-1.8-3.6-1.8c-0.8,0-1.6,0.2-2.4,0.5c-0.7,0.3-1.4,0.7-2.1,1.3
		c-0.6,0.6-1.2,1.2-1.7,2s-0.8,1.6-1.1,2.5v13.4h-2.9v-12.2c0-2.6-0.4-4.5-1.2-5.7s-2-1.8-3.6-1.8c-1.7,0-3.1,0.6-4.4,1.7
		s-2.2,2.7-2.8,4.5v13.4h-2.9v-21.9h2.6v5c0.9-1.7,2.1-3,3.5-3.9c1.5-0.9,3.1-1.4,4.8-1.4c1.8,0,3.3,0.5,4.4,1.6
		c1.1,1,1.8,2.4,2,4.1c2-3.8,4.9-5.6,8.4-5.6c1.2,0,2.3,0.2,3.1,0.7c0.9,0.4,1.5,1.1,2.1,1.9c0.5,0.8,0.9,1.8,1.1,3
		c0.2,1.2,0.4,2.5,0.4,3.9v12.6H801z"/>
	<path class="st0" d="M812.6,337.9c-1,0-2-0.2-2.9-0.5s-1.7-0.8-2.3-1.5c-0.7-0.6-1.2-1.3-1.5-2.2c-0.4-0.8-0.5-1.7-0.5-2.7
		s0.2-1.8,0.7-2.6c0.4-0.8,1.1-1.5,1.9-2.1c0.8-0.6,1.8-1,2.9-1.4c1.1-0.3,2.4-0.5,3.7-0.5c1.1,0,2.3,0.1,3.4,0.3
		c1.1,0.2,2.2,0.5,3.1,0.8v-2c0-1.9-0.5-3.5-1.6-4.6s-2.6-1.7-4.5-1.7c-1.1,0-2.3,0.2-3.4,0.7c-1.2,0.4-2.4,1.1-3.6,1.9l-1-1.9
		c2.8-1.9,5.6-2.9,8.2-2.9c2.7,0,4.9,0.8,6.5,2.3s2.4,3.7,2.4,6.4v9.9c0,0.8,0.4,1.2,1.1,1.2v2.5c-0.5,0.1-0.8,0.1-1.1,0.1
		c-0.7,0-1.3-0.2-1.7-0.5c-0.4-0.4-0.6-0.9-0.7-1.5l-0.1-1.7c-1,1.3-2.3,2.3-3.8,3C816,337.6,814.3,337.9,812.6,337.9z M813.2,335.8
		c1.5,0,2.9-0.3,4.1-0.8c1.2-0.6,2.2-1.3,2.8-2.2c0.3-0.3,0.4-0.5,0.6-0.8c0.1-0.3,0.2-0.6,0.2-0.8v-3.6c-1-0.4-1.9-0.6-3-0.8
		c-1-0.2-2.1-0.3-3.1-0.3c-2,0-3.7,0.4-4.9,1.3s-1.9,1.9-1.9,3.3c0,0.7,0.1,1.3,0.4,1.9c0.3,0.6,0.6,1.1,1.1,1.5s1,0.8,1.7,1
		S812.5,335.8,813.2,335.8z"/>
	<path class="st0" d="M840.9,318.1c-1.9,0.1-3.6,0.6-5,1.6s-2.4,2.4-3,4.2v13.6H830v-21.9h2.7v5.3c0.8-1.7,1.9-3,3.3-4
		c1.4-1,2.8-1.4,4.4-1.4c0.2,0,0.4,0,0.5,0V318.1z"/>
	<path class="st0" d="M855.2,336.5c-0.2,0.1-0.4,0.2-0.7,0.3c-0.3,0.1-0.7,0.3-1.1,0.4c-0.4,0.1-0.9,0.3-1.4,0.4s-1.1,0.2-1.7,0.2
		c-0.6,0-1.2-0.1-1.8-0.3s-1.1-0.4-1.5-0.8s-0.8-0.8-1-1.3c-0.3-0.5-0.4-1.1-0.4-1.8v-15.7h-3v-2.3h3v-7.4h2.9v7.4h5v2.3h-5v14.9
		c0.1,0.8,0.3,1.4,0.9,1.8c0.5,0.4,1.1,0.6,1.8,0.6c0.8,0,1.5-0.1,2.1-0.4s1-0.5,1.2-0.6L855.2,336.5z"/>
	<path class="st0" d="M868.1,322.4c0-1.8,0.3-3.6,0.9-5.4s1.5-3.4,2.8-4.8c1.2-1.4,2.7-2.5,4.5-3.4s3.8-1.3,6-1.3
		c2.7,0,4.9,0.6,6.8,1.8c1.9,1.2,3.3,2.8,4.2,4.7l-2.3,1.4c-0.5-1-1.1-1.8-1.7-2.5c-0.7-0.7-1.4-1.2-2.2-1.6s-1.6-0.7-2.4-0.9
		c-0.8-0.2-1.7-0.3-2.5-0.3c-1.8,0-3.4,0.4-4.7,1.1c-1.4,0.7-2.5,1.7-3.5,2.9s-1.6,2.5-2.1,4s-0.7,3-0.7,4.5c0,1.7,0.3,3.2,0.9,4.7
		s1.4,2.9,2.4,4c1,1.2,2.2,2.1,3.5,2.8c1.4,0.7,2.8,1,4.4,1c0.8,0,1.7-0.1,2.6-0.3s1.7-0.5,2.6-1c0.8-0.5,1.6-1,2.3-1.7
		s1.3-1.5,1.8-2.5l2.4,1.3c-0.5,1.1-1.1,2.1-2,3s-1.8,1.6-2.9,2.2c-1.1,0.6-2.2,1-3.4,1.3s-2.4,0.5-3.5,0.5c-2,0-3.9-0.4-5.6-1.3
		s-3.2-2.1-4.4-3.5s-2.2-3.1-2.9-4.9C868.5,326.2,868.1,324.3,868.1,322.4z"/>
	<path class="st0" d="M907.7,337.9c-1.6,0-3.1-0.3-4.4-0.9c-1.3-0.6-2.5-1.4-3.4-2.5c-1-1-1.7-2.2-2.2-3.6s-0.8-2.8-0.8-4.3
		s0.3-3,0.8-4.4s1.3-2.6,2.3-3.6s2.1-1.9,3.4-2.5c1.3-0.6,2.8-0.9,4.3-0.9c1.6,0,3,0.3,4.3,0.9s2.5,1.4,3.4,2.5c1,1,1.7,2.2,2.3,3.6
		c0.5,1.4,0.8,2.8,0.8,4.4c0,1.5-0.3,3-0.8,4.3c-0.5,1.4-1.3,2.6-2.3,3.6s-2.1,1.9-3.4,2.5C910.7,337.6,909.3,337.9,907.7,337.9z
		 M899.7,326.7c0,1.2,0.2,2.4,0.6,3.4s1,2,1.7,2.8s1.6,1.4,2.5,1.9c1,0.4,2,0.7,3.1,0.7s2.1-0.2,3.1-0.7s1.8-1.1,2.5-1.9
		s1.3-1.7,1.7-2.8c0.4-1.1,0.6-2.2,0.6-3.4c0-1.2-0.2-2.3-0.6-3.4c-0.4-1.1-1-2-1.7-2.8s-1.6-1.4-2.5-1.9c-1-0.5-2-0.7-3.1-0.7
		s-2.1,0.2-3.1,0.7s-1.8,1.1-2.5,1.9s-1.3,1.8-1.7,2.8C899.9,324.3,899.7,325.4,899.7,326.7z"/>
	<path class="st0" d="M941.8,337.5h-2.9v-12.2c0-2.6-0.4-4.5-1.2-5.7s-2-1.8-3.6-1.8c-0.8,0-1.7,0.2-2.5,0.5s-1.6,0.7-2.3,1.3
		c-0.7,0.6-1.4,1.2-1.9,2s-1,1.6-1.2,2.5v13.4h-2.9v-21.9h2.6v5c0.9-1.6,2.2-2.9,3.8-3.9c1.7-1,3.5-1.5,5.4-1.5
		c1.2,0,2.2,0.2,3.1,0.7c0.8,0.4,1.5,1.1,2,1.9s0.9,1.8,1.1,3s0.3,2.5,0.3,3.9v12.8H941.8z"/>
	<path class="st0" d="M955.1,337.9c-1.7,0-3.4-0.3-5-0.8c-1.6-0.6-3-1.4-4.2-2.4l1.3-1.9c1.2,1,2.5,1.8,3.8,2.3s2.6,0.8,4.1,0.8
		c1.8,0,3.2-0.4,4.2-1.1c1.1-0.7,1.6-1.7,1.6-3c0-0.6-0.1-1.1-0.4-1.5c-0.3-0.4-0.7-0.8-1.2-1.1c-0.5-0.3-1.2-0.6-2.1-0.8
		c-0.8-0.2-1.8-0.5-2.9-0.7c-1.3-0.3-2.4-0.6-3.3-0.9c-0.9-0.3-1.7-0.7-2.3-1.1s-1.1-0.9-1.3-1.4s-0.4-1.3-0.4-2.2
		c0-1.1,0.2-2.1,0.7-2.9c0.4-0.8,1-1.5,1.8-2.1c0.7-0.5,1.6-1,2.6-1.2c1-0.3,2.1-0.4,3.2-0.4c1.7,0,3.2,0.3,4.6,0.8
		c1.4,0.5,2.5,1.3,3.3,2.2l-1.4,1.7c-0.8-0.8-1.8-1.5-3-1.9s-2.4-0.6-3.6-0.6c-0.8,0-1.5,0.1-2.1,0.2c-0.6,0.2-1.2,0.4-1.7,0.7
		s-0.9,0.8-1.2,1.3s-0.4,1.1-0.4,1.8c0,0.6,0.1,1.1,0.3,1.4c0.2,0.4,0.5,0.7,1,0.9c0.4,0.3,1,0.5,1.7,0.7s1.5,0.4,2.5,0.7
		c1.4,0.3,2.6,0.7,3.7,1s2,0.7,2.7,1.2s1.3,1,1.6,1.6c0.4,0.6,0.5,1.4,0.5,2.4c0,2-0.8,3.6-2.3,4.8S957.7,337.9,955.1,337.9z"/>
	<path class="st0" d="M978.8,336.5c-0.2,0.1-0.4,0.2-0.7,0.3c-0.3,0.1-0.7,0.3-1.1,0.4c-0.4,0.1-0.9,0.3-1.4,0.4s-1.1,0.2-1.7,0.2
		c-0.6,0-1.2-0.1-1.8-0.3s-1.1-0.4-1.5-0.8s-0.8-0.8-1-1.3s-0.4-1.1-0.4-1.8v-15.7h-3v-2.3h3v-7.4h2.9v7.4h5v2.3h-5v14.9
		c0.1,0.8,0.3,1.4,0.9,1.8c0.5,0.4,1.1,0.6,1.8,0.6c0.8,0,1.5-0.1,2.1-0.4s1-0.5,1.2-0.6L978.8,336.5z"/>
	<path class="st0" d="M993.3,318.1c-1.9,0.1-3.6,0.6-5,1.6s-2.4,2.4-3,4.2v13.6h-2.9v-21.9h2.7v5.3c0.8-1.7,1.9-3,3.3-4
		c1.4-1,2.8-1.4,4.4-1.4c0.2,0,0.4,0,0.5,0V318.1z"/>
	<path class="st0" d="M1004,337.9c-2.4,0-4.2-0.8-5.3-2.4c-1.2-1.6-1.7-3.9-1.7-7.1v-12.9h2.9V328c0,5,1.7,7.4,5.1,7.4
		c0.8,0,1.7-0.1,2.5-0.4s1.6-0.7,2.2-1.2s1.3-1.2,1.8-1.9c0.5-0.7,1-1.6,1.3-2.5v-13.8h2.9v18.2c0,0.8,0.3,1.2,1,1.2v2.5
		c-0.3,0.1-0.6,0.1-0.8,0.1s-0.4,0-0.4,0c-0.7,0-1.2-0.3-1.6-0.7c-0.4-0.4-0.6-1.1-0.6-1.8v-2.5c-1,1.7-2.2,3-3.9,4
		C1007.6,337.5,1005.8,337.9,1004,337.9z"/>
	<path class="st0" d="M1020.6,326.5c0-1.5,0.3-3,0.8-4.4s1.3-2.6,2.2-3.6c1-1,2.1-1.8,3.5-2.4c1.3-0.6,2.8-0.9,4.5-0.9
		c2.1,0,3.9,0.5,5.4,1.4s2.7,2.2,3.5,3.8l-2.8,0.9c-0.6-1.1-1.5-2-2.6-2.6c-1.1-0.6-2.3-0.9-3.7-0.9c-1.1,0-2.2,0.2-3.1,0.7
		c-1,0.4-1.8,1.1-2.5,1.8c-0.7,0.8-1.3,1.7-1.7,2.8c-0.4,1.1-0.6,2.2-0.6,3.5c0,1.2,0.2,2.4,0.6,3.5c0.4,1.1,1,2,1.7,2.8
		s1.6,1.4,2.5,1.9c1,0.5,2,0.7,3.1,0.7c0.7,0,1.4-0.1,2.1-0.3s1.3-0.5,1.9-0.8s1.1-0.7,1.5-1.2c0.4-0.4,0.7-0.9,0.9-1.4l2.8,0.8
		c-0.3,0.8-0.8,1.5-1.3,2.2c-0.6,0.7-1.3,1.2-2.1,1.7s-1.7,0.9-2.6,1.1c-1,0.3-2,0.4-3,0.4c-1.6,0-3.1-0.3-4.4-0.9
		c-1.3-0.6-2.5-1.4-3.5-2.5s-1.7-2.3-2.3-3.6C1020.9,329.5,1020.6,328.1,1020.6,326.5z"/>
	<path class="st0" d="M1055.7,336.5c-0.2,0.1-0.4,0.2-0.7,0.3c-0.3,0.1-0.7,0.3-1.1,0.4s-0.9,0.3-1.4,0.4s-1.1,0.2-1.7,0.2
		c-0.6,0-1.2-0.1-1.8-0.3s-1.1-0.4-1.5-0.8s-0.8-0.8-1-1.3s-0.4-1.1-0.4-1.8v-15.7h-3v-2.3h3v-7.4h2.9v7.4h5v2.3h-5v14.9
		c0.1,0.8,0.3,1.4,0.9,1.8c0.5,0.4,1.1,0.6,1.8,0.6c0.8,0,1.5-0.1,2.1-0.4c0.6-0.3,1-0.5,1.2-0.6L1055.7,336.5z"/>
	<path class="st0" d="M1068,337.9c-1.6,0-3.1-0.3-4.4-0.9c-1.3-0.6-2.5-1.4-3.4-2.5c-1-1-1.7-2.2-2.2-3.6s-0.8-2.8-0.8-4.3
		s0.3-3,0.8-4.4s1.3-2.6,2.3-3.6s2.1-1.9,3.4-2.5s2.8-0.9,4.3-0.9c1.6,0,3,0.3,4.3,0.9s2.5,1.4,3.4,2.5c1,1,1.7,2.2,2.3,3.6
		c0.6,1.4,0.8,2.8,0.8,4.4c0,1.5-0.3,3-0.8,4.3c-0.5,1.4-1.3,2.6-2.2,3.6c-1,1-2.1,1.9-3.4,2.5
		C1071.1,337.6,1069.6,337.9,1068,337.9z M1060.1,326.7c0,1.2,0.2,2.4,0.6,3.4c0.4,1.1,1,2,1.7,2.8c0.7,0.8,1.6,1.4,2.5,1.9
		c1,0.4,2,0.7,3.1,0.7c1.1,0,2.1-0.2,3.1-0.7s1.8-1.1,2.5-1.9c0.7-0.8,1.3-1.7,1.7-2.8c0.4-1.1,0.6-2.2,0.6-3.4
		c0-1.2-0.2-2.3-0.6-3.4s-1-2-1.7-2.8c-0.7-0.8-1.6-1.4-2.5-1.9c-1-0.5-2-0.7-3.1-0.7c-1.1,0-2.1,0.2-3.1,0.7s-1.8,1.1-2.5,1.9
		c-0.7,0.8-1.3,1.8-1.7,2.8C1060.3,324.3,1060.1,325.4,1060.1,326.7z"/>
	<path class="st0" d="M1094.6,318.1c-1.9,0.1-3.6,0.6-5,1.6s-2.4,2.4-3,4.2v13.6h-2.9v-21.9h2.7v5.3c0.8-1.7,1.9-3,3.3-4
		c1.4-1,2.8-1.4,4.4-1.4c0.2,0,0.4,0,0.5,0V318.1z"/>
</g>
</svg>
