<?xml version="1.0" encoding="utf-8"?>
<!-- Generator: Adobe Illustrator 19.0.0, SVG Export Plug-In . SVG Version: 6.00 Build 0)  -->
<svg version="1.1" id="Layer_1" xmlns="http://www.w3.org/2000/svg" xmlns:xlink="http://www.w3.org/1999/xlink" x="0px" y="0px"
	 viewBox="192 172.1 416 107" style="enable-background:new 192 172.1 416 107;" xml:space="preserve">
<style type="text/css">
	.st0{fill:#FEFEFE;}
</style>
<g id="Layer_x0020_1">
	<g id="Шар_2">
		<g id="Слой_4">
			<g>
				<path class="st0" d="M251.4,242.2c-10.4,0-20.8,0-31.3,0c-2,0-4-0.1-6-0.4c-1-0.2-2.1-0.2-3.1-0.3c-0.5-0.1-1.1-0.2-1.6-0.3
					c-0.9-0.3-1.6-1.1-1.7-2.1c-0.1-0.5-0.1-0.9-0.1-1.3c0-3.1,0-6.2,0-9.2c0-0.3,0-0.6,0-0.9c0.1-1.3,1.1-2.4,2.4-2.6
					c1.8-0.3,3.8-0.4,5.6-0.7c0.4,0,0.9-0.1,1.2-0.2c0.3-0.1,0.5-0.3,0.7-0.6c0.2-0.3,0.3-0.6,0.4-0.9c0.7-2.1,1.5-4.2,2.6-6.1
					c0.4-0.6,0.3-1.2-0.1-1.8c-0.9-1-1.7-2.2-2.5-3.3c-0.5-0.5-0.9-1.2-1.4-1.7c-1-1.4-1-2.5,0.1-3.8c2.6-2.7,5.2-5.3,7.9-7.9
					c0.9-0.9,2.2-0.9,3.2-0.2c0.4,0.3,0.7,0.5,1,0.8l3.5,2.7c0.4,0.4,0.8,0.7,1.3,0.9c0.3,0.1,0.6,0.2,0.9,0.1
					c0.9-0.4,1.8-0.9,2.8-1.4c0.7-0.3,1.4-0.6,2.1-0.9c0.9-0.4,2.1-0.4,2.8-1.2c0.2-1,0.4-2,0.6-3.1c0.2-1,0.2-1.8,0.3-2.8
					c0.1-0.6,0.2-1.2,0.3-1.9c0.3-1,1.2-1.8,2.4-1.8c0.4,0,0.9,0,1.3,0h9.5c1.9,0.1,2.9,0.8,3.1,2.6c0.2,1.8,0.4,3.6,0.7,5.4
					c0.1,0.5,0.1,1,0.2,1.5c0.1,0.2,0.2,0.4,0.4,0.5c0.2,0.2,0.5,0.3,0.9,0.4c2.1,0.6,4.2,1.5,6.2,2.6c0.6,0.4,1.5,0.3,2-0.3
					c1.3-1,2.7-2.1,4-3.2c0.5-0.4,1-0.7,1.6-1.1c0.9-0.4,1.9-0.4,2.7,0.2c0.2,0.1,0.3,0.2,0.5,0.4l7.7,7.6c0.6,0.6,0.9,1.5,0.7,2.4
					c-0.1,0.4-0.3,0.8-0.5,1.2c-0.9,1.2-1.8,2.4-2.7,3.5c-0.5,0.7-1,1.4-1.6,2c-0.3,0.3-0.3,0.8-0.1,1.2c1.2,2.2,2.1,4.4,2.9,6.7
					c0.1,0.6,0.7,1.1,1.3,1.2l5.6,0.7c0.4,0.1,0.9,0.1,1.2,0.2c1.1,0.3,1.9,1.2,2,2.2c0,0.4,0,0.9,0,1.3c0,3.1,0,6.2,0,9.2
					c0,0.2,0,0.5,0,0.6c0.1,1.4-0.9,2.7-2.4,2.9c-0.3,0.1-0.6,0.1-0.9,0.1c-0.6,0.1-1.3,0.1-1.8,0.2c-3.6,0.6-7.2,0.7-10.8,0.6
					L251.4,242.2L251.4,242.2z M239.9,234.5c0.1,0,0.2-0.1,0.3-0.1c0.7-0.4,1.4-1,1.7-1.8c0.1-0.3,0.1-0.6,0-0.9
					c-0.1-0.3-0.3-0.6-0.5-0.8c-0.4-0.9,0.1-1.9,1-2.3h0.1c0.3-0.1,0.6-0.1,0.9-0.3c0.4-0.1,0.7-0.5,0.7-0.9c0.1-0.6,0.1-1.2,0-1.9
					c-0.1-0.4-0.3-0.8-0.7-0.9c-0.3-0.1-0.6-0.1-0.9-0.3c-0.9-0.4-1.4-1.4-1-2.3c0.1-0.3,0.4-0.6,0.5-0.8c0.2-0.4,0.1-0.8-0.1-1.1
					c-0.5-0.6-1-1-1.6-1.5c-0.2-0.1-0.4-0.2-0.6-0.1c-0.3,0.1-0.5,0.3-0.9,0.4c-1.3,0.6-2.2,0.3-2.7-1.1c0-0.1,0-0.2-0.1-0.3
					c-0.2-0.8-0.5-1-1.4-1c-0.6,0-1.2,0-1.8,0.1c-0.2,0.1-0.4,0.2-0.5,0.4c-0.1,0.3-0.3,0.6-0.3,0.9c-0.2,0.9-1.1,1.6-2,1.4
					c-0.3-0.1-0.5-0.1-0.7-0.3c-0.2-0.1-0.4-0.3-0.6-0.3c-0.4-0.2-0.9-0.1-1.2,0.1c-0.5,0.4-0.9,0.9-1.4,1.3
					c-0.3,0.3-0.3,0.8-0.1,1.2c0.3,0.4,0.4,0.7,0.6,1.1c0.1,0.8-0.2,1.5-0.8,1.9c-0.4,0.2-0.8,0.3-1.2,0.4c-0.4,0.1-0.7,0.5-0.7,0.9
					c-0.1,0.6-0.1,1.2,0,1.9c0,0.4,0.3,0.8,0.7,0.9c0.3,0.1,0.6,0.1,0.9,0.3c0.9,0.4,1.3,1.4,1,2.2c0,0.1,0,0.1-0.1,0.1
					c-0.1,0.3-0.3,0.6-0.5,0.8c-0.2,0.4-0.2,0.9,0.1,1.2c0.4,0.5,0.9,0.9,1.4,1.4c0.3,0.3,0.8,0.3,1.2,0.1c0.3-0.1,0.5-0.4,0.8-0.5
					c0.9-0.4,1.9,0.1,2.4,0.9c0,0,0,0,0,0.1c0.1,0.3,0.2,0.6,0.3,0.9c0.1,0.5,0.5,0.7,0.9,0.8c0.4,0,0.9,0,1.3,0
					c1.2,0,1.4-0.2,1.8-1.4c0.1-0.6,0.6-1.1,1.2-1.3c0.5-0.2,1.1-0.1,1.5,0.2C239.1,234.4,239.5,234.6,239.9,234.5L239.9,234.5z
					 M277.3,220.6c0-0.1,0-0.3-0.1-0.3c-0.6-0.6-1.2-1.2-1.8-1.7c-0.3-0.1-0.6-0.1-0.9,0c-0.3,0.1-0.6,0.4-0.8,0.5
					c-0.3,0.1-0.6,0.2-0.9,0.1c-0.7-0.2-1.5-0.5-1.5-1.4c-0.1-1.2-0.6-1.4-1.7-1.4c-0.6,0-1.1,0-1.6,0.1c-0.3,0.1-0.6,0.2-0.7,0.5
					c-0.1,0.2-0.1,0.5-0.1,0.6c-0.2,1-1.1,1.7-2.1,1.5c-0.2-0.1-0.4-0.1-0.6-0.2c-0.2-0.1-0.3-0.3-0.5-0.4c-0.4-0.3-0.9-0.3-1.2,0.1
					c-0.6,0.5-1,1-1.6,1.6c-0.1,0.3-0.2,0.6-0.1,0.9c0.1,0.3,0.3,0.5,0.4,0.8c0.5,0.9,0.1,1.9-0.8,2.4l0,0c-0.4,0.2-0.8,0.3-1.2,0.4
					c-0.2,0.1-0.3,0.3-0.4,0.5c-0.3,0.9-0.3,1.9,0,2.8c0.1,0.2,0.3,0.3,0.4,0.5c0.3,0.1,0.6,0.1,0.9,0.2c0.9,0.3,1.4,1.3,1.1,2.2
					c-0.1,0.1-0.1,0.3-0.2,0.4c-0.1,0.2-0.3,0.3-0.4,0.6c-0.3,0.5-0.2,1,0.3,1.4c0.4,0.4,0.7,0.7,1.1,1.1c0.4,0.4,1,0.4,1.5,0.1
					c0.1-0.1,0.2-0.1,0.2-0.2c1.4-0.7,2.3-0.3,2.9,1.2c0.1,0.2,0.1,0.4,0.2,0.6c0.1,0.2,0.3,0.3,0.5,0.4c0.9,0.3,1.9,0.3,2.8,0
					c0.2-0.1,0.3-0.3,0.5-0.4c0.1-0.2,0.2-0.4,0.2-0.6c0-0.7,0.5-1.4,1.2-1.5c0.6-0.2,1.2-0.1,1.8,0.2c0.9,0.6,1.2,0.5,1.9-0.2
					c0.4-0.4,0.7-0.7,1-1.2c0.3-0.3,0.3-0.8,0-1.2c-0.1-0.2-0.3-0.4-0.3-0.5c-0.5-0.8-0.3-1.9,0.6-2.3c0.1-0.1,0.3-0.1,0.4-0.2
					c0.3-0.1,0.6-0.1,0.9-0.3c0.4-0.1,0.7-0.5,0.7-0.9c0.1-0.6,0.1-1.2,0-1.9c0-0.3-0.3-0.5-0.5-0.7c-0.1-0.1-0.2-0.1-0.3-0.1
					c-0.7-0.2-1.4-0.3-1.8-1c-0.5-0.9,0-1.6,0.5-2.3C277.1,221,277.2,220.9,277.3,220.6z"/>
			</g>
			<path class="st0" d="M251.4,275.2c-1.4,0-2.8,0-4.2,0c-1.8,0-2-0.2-2.2-1.8c-0.3-2.2-0.6-4.4-0.8-6.6c-0.1-0.7-0.5-1.2-1.2-1.4
				c-2-0.5-4-1.3-6-2.2c-1-0.5-2.1-1-3.2-1.6c-1.3,0.5-2.2,1.6-3.3,2.4c-1.3,0.9-2.6,1.9-3.8,2.9c-0.4,0.3-0.9,0.2-1.2-0.1
				c-0.5-0.4-0.9-0.9-1.4-1.3c-2.1-2.1-4.2-4.2-6.3-6.3c-0.4-0.4-0.4-1-0.1-1.4c1-1.4,2.1-2.7,3.1-4.1c0.6-0.7,1.2-1.5,1.7-2.3
				c0.3-0.4,0.3-0.8,0.1-1.2c-0.3-0.6-0.6-1.1-0.9-1.7c-0.3-0.6-0.6-1.4-0.9-2c-0.1-0.3,0.1-0.6,0.4-0.8c0.2-0.1,0.5-0.1,0.6-0.1
				h8.3c0.6,0,1.2,0.3,1.6,0.8c0.6,0.9,1.3,1.7,2,2.5c8.6,9.7,23.5,10.7,33.3,2c1.1-1,2.1-2,3-3.1c2-2.6,1.7-2.2,4.5-2.2
				c2.4,0,4.6,0,7,0.1c0.3,0,0.5,0.5,0.5,0.7c-0.1,0.3,0,0.2-0.1,0.3c-0.1,0.1-0.2,0.4-0.3,0.6l-1.6,3.4c0.5,1.5,1.7,2.4,2.6,3.6
				c0.7,1,1.6,2,2.4,3c0.5,0.5,0.6,1.3,0.1,1.9c-0.1,0.1-0.1,0.1-0.1,0.1c-2.4,2.4-4.8,4.8-7.2,7.2c-0.7,0.7-1,0.7-1.9,0
				c-1.4-1.1-2.8-2.2-4.3-3.3l-1.2-1c-0.5-0.6-1.4-0.7-2-0.3c-0.2,0.1-0.4,0.3-0.5,0.3c-2.2,1.2-4.6,2.2-7.1,2.9
				c-1,0.2-1.8,1.1-1.8,2.2c-0.1,1.3-0.3,2.5-0.5,3.8c-0.1,0.9-0.2,1.9-0.4,2.9c-0.1,0.9-0.6,1.2-1.5,1.2c-1.7,0-3.4,0-5.1,0
				L251.4,275.2z"/>
			<path class="st0" d="M301.5,178.6c2.6,0,4.6,2,4.7,4.5c0,2.6-2.1,4.7-4.7,4.7c-0.1,0-0.1,0-0.2,0c-0.2,0-0.5-0.1-0.6-0.1
				c-0.6-0.2-1.2-0.6-1.8-0.5c-0.9,0.1-1.3,1.1-1.8,1.7c-2.7,3.1-5.4,6.3-8.1,9.4c-0.4,0.4-0.7,0.7-1.1,1.1c-0.2,0.1-0.4,0.1-0.6,0
				c-0.7-0.6-1.4-1.3-2-2c-0.1-0.2-0.1-0.4,0-0.6c0.4-0.4,0.7-0.7,1.2-1.1l8.9-7.7c0.7-0.6,1.3-1.1,1.8-1.7c0.2-0.3,0.3-0.6,0.3-0.9
				c-0.1-0.5-0.3-1-0.4-1.6c-0.5-2.5,1.2-4.8,3.7-5.3C301,178.7,301.2,178.6,301.5,178.6z"/>
			<path class="st0" d="M206.2,182.8c0.1,0.9-0.1,1.7-0.5,2.6c-0.2,0.4-0.1,0.9,0.2,1.2c0.4,0.4,0.8,0.7,1.2,1
				c3,2.6,6.1,5.3,9.2,7.9c0.5,0.5,1,1,1.6,1.5c0.2,0.2,0.2,0.4,0,0.5c-0.6,0.6-1.2,1.2-1.8,1.8c-0.3,0.3-0.7,0.3-1,0l-0.1-0.1
				c-0.6-0.6-1.1-1.2-1.7-1.9c-2.3-2.7-4.6-5.3-6.9-7.9c-0.6-0.6-1.1-1.3-1.7-1.9c-0.3-0.2-0.6-0.2-0.9-0.2c-0.5,0.1-1,0.4-1.5,0.5
				c-2.5,0.5-4.9-1.2-5.4-3.7c-0.1-0.3-0.1-0.5-0.1-0.7c-0.1-1.7,0.9-3.4,2.4-4.2c2.2-1.2,5-0.4,6.2,1.8c0.1,0.1,0.1,0.3,0.2,0.4
				C205.9,181.9,206.1,182.3,206.2,182.8z"/>
			<path class="st0" d="M233.9,231.5c-2.7-0.1-4.9-2.3-4.9-5c0.1-2.7,2.3-4.9,5-4.9c2.7,0.1,4.8,2.2,4.8,4.8c0.1,2.7-2.1,5-4.8,5.1
				C234.1,231.5,234,231.5,233.9,231.5z"/>
			<path class="st0" d="M269.2,221.6c2.7-0.1,5,2.1,5,4.8c0.1,2.7-2.1,5-4.8,5s-5-2.1-5-4.8C264.3,223.9,266.4,221.7,269.2,221.6
				L269.2,221.6z"/>
		</g>
	</g>
	<g>
		<polygon class="st0" points="369.2,227.8 369.2,237.3 330.7,237.3 330.7,181.7 368.5,181.7 368.5,191.2 341.4,191.2 341.4,204.6 
			364.8,204.6 364.8,213.3 341.4,213.3 341.4,227.8 		"/>
		<path class="st0" d="M374.2,216.7c0-2.8,0.5-5.6,1.5-8.1s2.4-4.8,4.3-6.7c1.8-1.9,4.1-3.5,6.8-4.6c2.7-1.1,5.6-1.7,9-1.7
			c4.5,0,8.3,1,11.5,2.9c3.2,1.9,5.5,4.5,7.1,7.6l-10.2,3.1c-0.9-1.5-2-2.7-3.5-3.5c-1.5-0.8-3.1-1.2-4.8-1.2
			c-1.5,0-2.9,0.3-4.2,0.9c-1.3,0.6-2.4,1.4-3.4,2.5c-1,1-1.7,2.4-2.3,3.8c-0.5,1.5-0.8,3.2-0.8,5c0,1.8,0.3,3.5,0.9,5
			c0.5,1.5,1.4,2.8,2.3,3.9c1,1.1,2.1,1.9,3.4,2.6c1.3,0.6,2.7,0.9,4.1,0.9c1.9,0,3.6-0.5,5.2-1.4c1.6-0.9,2.7-2.1,3.3-3.4l10.2,3.1
			c-1.4,3.1-3.7,5.7-6.9,7.7c-3.2,2-7.1,3-11.7,3c-3.3,0-6.3-0.6-9-1.7c-2.7-1.1-4.9-2.7-6.8-4.7c-1.8-2-3.3-4.2-4.3-6.8
			C374.7,222.3,374.2,219.6,374.2,216.7z"/>
		<path class="st0" d="M441.4,238c-3.3,0-6.3-0.6-9-1.7c-2.7-1.1-4.9-2.7-6.7-4.7c-1.9-2-3.3-4.2-4.3-6.7c-1-2.6-1.5-5.2-1.5-8.1
			c0-2.9,0.5-5.6,1.5-8.1s2.4-4.8,4.3-6.7c1.8-2,4.1-3.5,6.7-4.6c2.7-1.1,5.6-1.8,9-1.8c3.4,0,6.3,0.6,8.9,1.8
			c2.6,1.1,4.9,2.7,6.7,4.6c1.8,2,3.3,4.2,4.3,6.7s1.5,5.3,1.5,8.1c0,2.8-0.5,5.5-1.5,8.1c-1,2.6-2.4,4.8-4.2,6.7
			c-1.8,2-4.1,3.5-6.7,4.7C447.7,237.5,444.8,238,441.4,238z M430.7,216.8c0,1.8,0.3,3.5,0.8,5c0.6,1.5,1.3,2.8,2.3,3.8
			c1,1.1,2.1,1.9,3.4,2.6c1.3,0.6,2.7,0.9,4.2,0.9c1.5,0,2.9-0.3,4.2-0.9c1.3-0.6,2.4-1.4,3.4-2.6c1-1.1,1.8-2.4,2.3-3.9
			c0.6-1.5,0.8-3.1,0.8-5c0-1.8-0.3-3.4-0.8-4.9c-0.5-1.5-1.3-2.8-2.3-3.9c-1-1.1-2.1-1.9-3.4-2.6c-1.3-0.6-2.7-0.9-4.2-0.9
			c-1.5,0-2.9,0.3-4.2,0.9c-1.3,0.6-2.4,1.5-3.4,2.6c-1,1.1-1.7,2.4-2.3,3.9C431,213.4,430.7,215.1,430.7,216.8z"/>
		<path class="st0" d="M517,222.9c0,2.4-0.5,4.4-1.4,6.2c-0.9,1.8-2.2,3.3-3.9,4.5c-1.6,1.2-3.5,2.1-5.7,2.7
			c-2.2,0.6-4.5,0.9-6.9,0.9h-26.8v-55.5H502c1.9,0,3.7,0.4,5.2,1.2c1.6,0.8,2.9,1.9,4,3.2c1.1,1.3,1.9,2.9,2.6,4.5
			c0.6,1.7,0.9,3.4,0.9,5.1c0,2.7-0.7,5.3-2,7.6c-1.4,2.4-3.4,4.2-6,5.3c3.1,0.9,5.7,2.6,7.6,5C516.1,216.3,517,219.3,517,222.9z
			 M483.1,191v14h14.4c1.8,0,3.3-0.6,4.6-1.9c1.3-1.2,1.9-3,1.9-5.1c0-2.1-0.6-3.9-1.7-5.1c-1.2-1.2-2.6-1.8-4.4-1.8L483.1,191
			L483.1,191z M506.1,220.9c0-1-0.2-1.9-0.5-2.9c-0.3-0.9-0.8-1.7-1.4-2.4c-0.6-0.7-1.2-1.2-2.1-1.6c-0.8-0.4-1.6-0.5-2.6-0.5h-16.6
			v14.6h16c1,0,1.9-0.2,2.8-0.6c0.9-0.4,1.6-0.9,2.2-1.5c0.6-0.7,1.1-1.4,1.5-2.3C506,222.8,506.1,221.9,506.1,220.9z"/>
		<path class="st0" d="M545.3,238c-3.3,0-6.3-0.6-9-1.7c-2.7-1.1-4.9-2.7-6.7-4.7c-1.9-2-3.3-4.2-4.3-6.7c-1-2.6-1.5-5.2-1.5-8.1
			c0-2.9,0.5-5.6,1.5-8.1s2.4-4.8,4.3-6.7c1.9-2,4.1-3.5,6.7-4.6c2.7-1.1,5.7-1.8,9-1.8c3.3,0,6.3,0.6,8.9,1.8
			c2.6,1.1,4.9,2.7,6.7,4.6c1.9,2,3.3,4.2,4.3,6.7s1.5,5.3,1.5,8.1c0,2.8-0.5,5.5-1.5,8.1c-1,2.6-2.4,4.8-4.2,6.7
			c-1.8,2-4.1,3.5-6.7,4.7C551.7,237.5,548.6,238,545.3,238z M534.6,216.8c0,1.8,0.3,3.5,0.8,5c0.5,1.5,1.3,2.8,2.3,3.8
			c1,1.1,2.1,1.9,3.4,2.6c1.3,0.6,2.7,0.9,4.2,0.9c1.5,0,2.9-0.3,4.2-0.9c1.3-0.6,2.4-1.4,3.4-2.6c1-1.1,1.7-2.4,2.3-3.9
			c0.5-1.5,0.8-3.1,0.8-5c0-1.8-0.3-3.4-0.8-4.9c-0.6-1.5-1.3-2.8-2.3-3.9c-1-1.1-2.1-1.9-3.4-2.6s-2.7-0.9-4.2-0.9
			c-1.5,0-2.9,0.3-4.2,0.9s-2.4,1.5-3.4,2.6c-1,1.1-1.8,2.4-2.3,3.9C534.8,213.4,534.6,215.1,534.6,216.8z"/>
		<path class="st0" d="M599.7,235.1c-1.4,0.6-3.1,1.2-5.1,1.9c-2.1,0.6-4.2,0.9-6.4,0.9c-1.5,0-2.8-0.2-4.1-0.5
			c-1.3-0.4-2.4-0.9-3.3-1.8c-1-0.8-1.8-1.8-2.3-3.1c-0.6-1.3-0.9-2.9-0.9-4.6v-23.6h-5.4v-8.1h5.4V183h10.5v13.3h8.6v8.1h-8.6v20
			c0,1.5,0.4,2.5,1.1,3.1c0.7,0.6,1.7,0.9,2.8,0.9c1.1,0,2.2-0.2,3.2-0.5c1.1-0.4,1.9-0.7,2.5-0.9L599.7,235.1z"/>
		<polygon class="st0" points="326.1,256.1 330.8,265.9 336.9,255.9 338.9,255.9 331.8,267.5 331.8,274.4 330,274.4 330,267.5 
			324.1,256.1 		"/>
		<path class="st0" d="M344.7,274.7c-1,0-1.9-0.2-2.7-0.6c-0.8-0.4-1.6-0.9-2.1-1.6c-0.6-0.6-1-1.4-1.4-2.2
			c-0.3-0.9-0.5-1.7-0.5-2.7c0-0.9,0.2-1.8,0.5-2.7c0.3-0.9,0.8-1.6,1.4-2.2c0.6-0.6,1.3-1.2,2.1-1.5c0.8-0.4,1.7-0.6,2.7-0.6
			c1,0,1.8,0.2,2.7,0.6c0.8,0.4,1.6,0.9,2.1,1.5c0.6,0.6,1,1.4,1.4,2.2c0.4,0.9,0.5,1.7,0.5,2.7c0,0.9-0.2,1.9-0.5,2.7
			c-0.3,0.9-0.8,1.6-1.4,2.2c-0.6,0.6-1.3,1.2-2.1,1.6C346.6,274.5,345.7,274.7,344.7,274.7z M339.8,267.7c0,0.7,0.1,1.5,0.4,2.1
			s0.6,1.2,1,1.7c0.5,0.5,1,0.9,1.6,1.2c0.6,0.3,1.2,0.4,1.9,0.4c0.7,0,1.3-0.1,1.9-0.4c0.6-0.3,1.1-0.7,1.5-1.2
			c0.5-0.5,0.8-1,1.1-1.7c0.2-0.7,0.4-1.4,0.4-2.1c0-0.8-0.1-1.4-0.4-2.1c-0.3-0.7-0.6-1.2-1.1-1.7c-0.4-0.5-1-0.9-1.5-1.2
			c-0.6-0.3-1.2-0.4-1.9-0.4c-0.7,0-1.3,0.1-1.9,0.4c-0.6,0.3-1.1,0.7-1.6,1.2c-0.4,0.5-0.8,1.1-1,1.7S339.8,266.9,339.8,267.7z"/>
		<path class="st0" d="M358.6,274.7c-1.5,0-2.6-0.5-3.3-1.5c-0.7-1-1-2.4-1-4.4v-8h1.8v7.7c0,3.1,1.1,4.6,3.2,4.6
			c0.5,0,1-0.1,1.6-0.3c0.5-0.2,1-0.4,1.4-0.7c0.4-0.3,0.8-0.7,1.1-1.2c0.3-0.4,0.6-1,0.8-1.5v-8.6h1.8v11.3c0,0.5,0.2,0.7,0.6,0.7
			v1.6c-0.2,0.1-0.4,0.1-0.5,0.1c-0.1,0-0.2,0-0.2,0c-0.5,0-0.8-0.2-1-0.4c-0.3-0.3-0.4-0.7-0.4-1.1v-1.5c-0.6,1-1.4,1.8-2.4,2.5
			C360.9,274.4,359.8,274.7,358.6,274.7z"/>
		<path class="st0" d="M376.7,262.4c-1.2,0.1-2.2,0.4-3.1,1c-0.9,0.6-1.5,1.5-1.8,2.6v8.4h-1.8v-13.6h1.7v3.3c0.5-1,1.2-1.9,2-2.5
			c0.9-0.6,1.8-0.9,2.7-0.9c0.1,0,0.2,0,0.3,0V262.4z"/>
		<path class="st0" d="M396.3,259.4c-0.5-0.6-1.2-1-2.1-1.4c-0.9-0.4-1.9-0.6-3-0.6c-1.6,0-2.9,0.3-3.6,0.9
			c-0.8,0.6-1.1,1.4-1.1,2.6c0,0.6,0.1,1,0.3,1.4c0.2,0.4,0.5,0.7,0.9,0.9c0.4,0.3,0.9,0.5,1.6,0.7c0.7,0.2,1.4,0.4,2.3,0.6
			c1,0.2,1.8,0.4,2.7,0.7c0.8,0.2,1.5,0.5,2,1c0.6,0.4,1,0.9,1.3,1.4c0.3,0.6,0.4,1.2,0.4,2.1c0,0.9-0.2,1.6-0.5,2.2
			c-0.3,0.6-0.8,1.1-1.4,1.6c-0.6,0.4-1.3,0.7-2.1,0.9c-0.8,0.2-1.7,0.3-2.7,0.3c-2.8,0-5.3-0.9-7.4-2.7l0.9-1.5
			c0.3,0.4,0.7,0.7,1.2,1c0.4,0.3,1,0.6,1.6,0.8c0.5,0.3,1.2,0.5,1.8,0.6c0.6,0.1,1.3,0.2,2,0.2c1.5,0,2.6-0.3,3.5-0.8
			c0.8-0.5,1.2-1.3,1.2-2.4c0-0.6-0.1-1-0.4-1.4c-0.3-0.4-0.6-0.8-1.1-1c-0.5-0.3-1-0.6-1.7-0.8c-0.7-0.2-1.5-0.4-2.4-0.6
			c-1-0.3-1.8-0.5-2.6-0.7c-0.7-0.2-1.4-0.5-1.9-0.9c-0.5-0.4-0.9-0.8-1.1-1.3c-0.3-0.5-0.4-1.1-0.4-1.9c0-0.9,0.2-1.6,0.5-2.3
			c0.3-0.7,0.8-1.2,1.4-1.7c0.6-0.4,1.3-0.8,2.1-1c0.8-0.3,1.7-0.4,2.7-0.4c1.2,0,2.4,0.2,3.3,0.6c1,0.4,1.9,0.9,2.6,1.5
			L396.3,259.4z"/>
		<path class="st0" d="M421.1,274.4h-1.8v-7.6c0-1.6-0.2-2.7-0.7-3.5c-0.5-0.7-1.2-1.1-2.2-1.1c-0.5,0-1,0.1-1.5,0.3
			c-0.4,0.2-0.9,0.4-1.3,0.8c-0.4,0.4-0.7,0.8-1,1.2c-0.3,0.5-0.5,1-0.7,1.6v8.3H410v-7.6c0-1.6-0.2-2.8-0.7-3.5
			c-0.5-0.7-1.2-1.1-2.2-1.1c-1,0-1.9,0.4-2.7,1c-0.8,0.7-1.4,1.7-1.7,2.8v8.3h-1.8v-13.6h1.6v3.1c0.6-1,1.3-1.8,2.2-2.4
			c0.9-0.6,1.9-0.9,3-0.9c1.1,0,2,0.3,2.7,1c0.7,0.6,1.1,1.5,1.2,2.6c1.2-2.4,3-3.5,5.2-3.5c0.7,0,1.4,0.1,1.9,0.5
			c0.6,0.2,0.9,0.7,1.3,1.2c0.3,0.5,0.6,1.1,0.7,1.9c0.1,0.7,0.3,1.6,0.3,2.4v7.8H421.1z"/>
		<path class="st0" d="M428.3,274.7c-0.6,0-1.2-0.1-1.8-0.3c-0.5-0.2-1-0.5-1.4-0.9c-0.4-0.4-0.7-0.8-0.9-1.4
			c-0.3-0.5-0.3-1.1-0.3-1.7c0-0.6,0.1-1.1,0.4-1.6c0.3-0.5,0.7-0.9,1.2-1.3c0.5-0.4,1.1-0.6,1.8-0.9c0.7-0.2,1.5-0.3,2.3-0.3
			c0.7,0,1.4,0.1,2.1,0.2c0.7,0.1,1.4,0.3,1.9,0.5v-1.2c0-1.2-0.3-2.2-1-2.9c-0.7-0.7-1.6-1-2.8-1c-0.7,0-1.4,0.1-2.1,0.4
			c-0.7,0.3-1.5,0.7-2.2,1.2l-0.6-1.2c1.7-1.2,3.5-1.8,5.1-1.8c1.7,0,3,0.5,4,1.4s1.5,2.3,1.5,4v6.1c0,0.5,0.3,0.8,0.7,0.8v1.5
			c-0.3,0.1-0.5,0.1-0.7,0.1c-0.4,0-0.8-0.1-1-0.3c-0.3-0.3-0.4-0.6-0.4-0.9l-0.1-1c-0.6,0.8-1.4,1.4-2.4,1.8
			C430.4,274.5,429.3,274.7,428.3,274.7z M428.6,273.4c0.9,0,1.8-0.2,2.5-0.5c0.8-0.4,1.4-0.8,1.8-1.4c0.2-0.2,0.2-0.3,0.4-0.5
			c0.1-0.2,0.1-0.4,0.1-0.5v-2.2c-0.6-0.2-1.2-0.4-1.8-0.5c-0.6-0.1-1.3-0.2-1.9-0.2c-1.2,0-2.3,0.3-3,0.8c-0.8,0.5-1.2,1.2-1.2,2
			c0,0.4,0.1,0.8,0.3,1.2c0.2,0.4,0.4,0.7,0.7,0.9c0.3,0.3,0.6,0.5,1,0.6S428.2,273.4,428.6,273.4z"/>
		<path class="st0" d="M445.8,262.4c-1.2,0.1-2.2,0.4-3.1,1c-0.9,0.6-1.5,1.5-1.8,2.6v8.4H439v-13.6h1.7v3.3c0.5-1,1.2-1.9,2.1-2.5
			c0.9-0.6,1.7-0.9,2.7-0.9c0.1,0,0.3,0,0.3,0V262.4z"/>
		<path class="st0" d="M454.7,273.8c-0.1,0.1-0.3,0.1-0.5,0.2c-0.2,0.1-0.4,0.2-0.7,0.2c-0.3,0.1-0.6,0.2-0.9,0.3
			c-0.3,0.1-0.7,0.1-1.1,0.1s-0.7-0.1-1.1-0.2c-0.4-0.1-0.7-0.3-0.9-0.5c-0.3-0.2-0.5-0.5-0.6-0.8c-0.2-0.3-0.3-0.7-0.3-1.1v-9.8
			h-1.8v-1.4h1.9v-4.6h1.8v4.6h3.1v1.4h-3.1v9.2c0.1,0.5,0.2,0.9,0.6,1.1c0.3,0.3,0.7,0.4,1.1,0.4c0.5,0,0.9-0.1,1.3-0.3
			c0.4-0.2,0.6-0.3,0.7-0.4L454.7,273.8z"/>
		<path class="st0" d="M462.7,265.1c0-1.1,0.2-2.2,0.5-3.4c0.4-1.1,0.9-2.1,1.8-3c0.7-0.9,1.7-1.5,2.8-2.1c1.1-0.6,2.4-0.8,3.7-0.8
			c1.7,0,3.1,0.4,4.2,1.1c1.2,0.7,2,1.7,2.6,2.9l-1.4,0.9c-0.3-0.6-0.7-1.1-1.1-1.5c-0.4-0.5-0.9-0.8-1.4-1c-0.5-0.3-1-0.5-1.5-0.6
			c-0.5-0.1-1-0.2-1.6-0.2c-1.1,0-2.1,0.3-2.9,0.7c-0.9,0.5-1.5,1.1-2.2,1.8s-1,1.6-1.3,2.5c-0.3,0.9-0.4,1.9-0.4,2.8
			c0,1,0.2,2,0.5,2.9c0.4,0.9,0.9,1.8,1.5,2.5c0.6,0.7,1.4,1.3,2.2,1.7c0.9,0.5,1.8,0.6,2.7,0.6c0.5,0,1-0.1,1.6-0.2
			c0.6-0.1,1.1-0.3,1.6-0.6c0.5-0.3,1-0.6,1.4-1c0.4-0.5,0.8-0.9,1.1-1.6l1.5,0.8c-0.3,0.7-0.7,1.3-1.2,1.9c-0.6,0.6-1.1,1-1.8,1.4
			c-0.7,0.4-1.4,0.6-2.1,0.8c-0.7,0.2-1.5,0.3-2.2,0.3c-1.2,0-2.4-0.3-3.5-0.8c-1-0.6-2-1.3-2.7-2.2c-0.8-0.9-1.4-1.9-1.8-3.1
			C462.9,267.4,462.7,266.2,462.7,265.1z"/>
		<path class="st0" d="M487.2,274.7c-1,0-1.9-0.2-2.7-0.6c-0.8-0.4-1.6-0.9-2.1-1.6c-0.6-0.6-1-1.4-1.4-2.2
			c-0.3-0.9-0.5-1.7-0.5-2.7c0-0.9,0.2-1.8,0.5-2.7c0.3-0.9,0.8-1.6,1.4-2.2c0.6-0.6,1.3-1.2,2.1-1.5c0.8-0.4,1.7-0.6,2.7-0.6
			c1,0,1.9,0.2,2.7,0.6s1.6,0.9,2.1,1.5c0.6,0.6,1.1,1.4,1.4,2.2c0.3,0.9,0.5,1.7,0.5,2.7c0,0.9-0.2,1.9-0.5,2.7
			c-0.3,0.9-0.8,1.6-1.4,2.2s-1.3,1.2-2.1,1.6S488.2,274.7,487.2,274.7z M482.3,267.7c0,0.7,0.1,1.5,0.4,2.1c0.3,0.6,0.6,1.2,1,1.7
			c0.5,0.5,1,0.9,1.6,1.2c0.6,0.3,1.2,0.4,1.9,0.4c0.7,0,1.3-0.1,1.9-0.4c0.6-0.3,1.1-0.7,1.5-1.2c0.5-0.5,0.8-1,1-1.7
			c0.3-0.7,0.4-1.4,0.4-2.1c0-0.8-0.1-1.4-0.4-2.1c-0.2-0.7-0.6-1.2-1-1.7c-0.4-0.5-1-0.9-1.5-1.2c-0.6-0.3-1.2-0.4-1.9-0.4
			c-0.7,0-1.3,0.1-1.9,0.4c-0.6,0.3-1.1,0.7-1.6,1.2c-0.4,0.5-0.8,1.1-1,1.7C482.4,266.2,482.3,266.9,482.3,267.7z"/>
		<path class="st0" d="M508.4,274.4h-1.8v-7.6c0-1.6-0.2-2.8-0.7-3.5c-0.5-0.7-1.2-1.1-2.2-1.1c-0.5,0-1,0.1-1.5,0.3
			c-0.5,0.2-1,0.4-1.4,0.8c-0.4,0.4-0.9,0.7-1.2,1.2c-0.3,0.5-0.6,1-0.7,1.6v8.3h-1.8v-13.6h1.6v3.1c0.6-1,1.4-1.8,2.4-2.4
			c1-0.6,2.2-0.9,3.3-0.9c0.8,0,1.4,0.1,1.9,0.4c0.5,0.3,0.9,0.7,1.2,1.2c0.3,0.5,0.6,1.1,0.7,1.9c0.1,0.7,0.2,1.5,0.2,2.4v7.9
			H508.4z"/>
		<path class="st0" d="M516.6,274.7c-1,0-2.1-0.2-3.1-0.5c-1-0.4-1.8-0.9-2.6-1.5l0.8-1.2c0.7,0.6,1.6,1.1,2.4,1.4
			c0.8,0.3,1.6,0.5,2.6,0.5c1.1,0,2-0.3,2.6-0.7c0.7-0.5,1-1,1-1.9c0-0.4-0.1-0.7-0.3-0.9c-0.2-0.2-0.4-0.5-0.7-0.7
			c-0.3-0.2-0.8-0.4-1.3-0.5c-0.5-0.1-1.1-0.3-1.8-0.5c-0.8-0.2-1.5-0.4-2-0.5c-0.6-0.2-1-0.5-1.4-0.7c-0.4-0.3-0.7-0.6-0.8-0.9
			c-0.1-0.3-0.2-0.8-0.2-1.4c0-0.7,0.1-1.3,0.4-1.8c0.3-0.5,0.6-0.9,1.1-1.3c0.5-0.3,1-0.6,1.6-0.8c0.6-0.2,1.3-0.2,2-0.2
			c1,0,2,0.2,2.9,0.5c0.9,0.3,1.6,0.8,2,1.4l-0.9,1c-0.5-0.5-1.1-0.9-1.8-1.2c-0.7-0.3-1.5-0.4-2.2-0.4c-0.5,0-0.9,0.1-1.3,0.1
			c-0.4,0.1-0.7,0.3-1,0.4c-0.3,0.2-0.6,0.5-0.7,0.8c-0.2,0.3-0.3,0.7-0.3,1.1c0,0.4,0.1,0.7,0.2,0.9c0.1,0.3,0.3,0.4,0.6,0.6
			c0.3,0.2,0.6,0.3,1.1,0.4c0.4,0.1,0.9,0.3,1.5,0.4c0.9,0.2,1.6,0.4,2.3,0.6s1.2,0.4,1.7,0.7c0.5,0.3,0.8,0.6,1,1
			c0.3,0.4,0.3,0.9,0.3,1.5c0,1.2-0.5,2.2-1.4,3S518.2,274.7,516.6,274.7z"/>
		<path class="st0" d="M531.3,273.8c-0.1,0.1-0.2,0.1-0.4,0.2c-0.2,0.1-0.4,0.2-0.7,0.2c-0.3,0.1-0.6,0.2-0.9,0.3
			c-0.3,0.1-0.7,0.1-1,0.1c-0.4,0-0.7-0.1-1.1-0.2c-0.4-0.1-0.7-0.3-0.9-0.5c-0.3-0.2-0.5-0.5-0.6-0.8c-0.1-0.3-0.3-0.7-0.3-1.1
			v-9.8h-1.8v-1.4h1.8v-4.6h1.8v4.6h3.1v1.4h-3.1v9.2c0.1,0.5,0.2,0.9,0.5,1.1c0.3,0.3,0.7,0.4,1.1,0.4c0.5,0,0.9-0.1,1.3-0.3
			c0.4-0.2,0.6-0.3,0.7-0.4L531.3,273.8z"/>
		<path class="st0" d="M540.3,262.4c-1.2,0.1-2.2,0.4-3.1,1c-0.9,0.6-1.5,1.5-1.9,2.6v8.4h-1.8v-13.6h1.7v3.3c0.5-1,1.2-1.9,2-2.5
			c0.9-0.6,1.8-0.9,2.7-0.9c0.1,0,0.2,0,0.3,0V262.4z"/>
		<path class="st0" d="M547,274.7c-1.5,0-2.6-0.5-3.3-1.5c-0.8-1-1.1-2.4-1.1-4.4v-8h1.8v7.7c0,3.1,1,4.6,3.1,4.6
			c0.5,0,1.1-0.1,1.6-0.3c0.5-0.2,1-0.4,1.4-0.7c0.4-0.3,0.8-0.7,1.1-1.2c0.3-0.4,0.6-1,0.8-1.5v-8.6h1.8v11.3
			c0,0.5,0.2,0.7,0.6,0.7v1.6c-0.2,0.1-0.4,0.1-0.5,0.1c-0.1,0-0.3,0-0.3,0c-0.4,0-0.7-0.2-1-0.4c-0.3-0.3-0.4-0.7-0.4-1.1v-1.5
			c-0.6,1-1.4,1.8-2.4,2.5C549.2,274.4,548.1,274.7,547,274.7z"/>
		<path class="st0" d="M557.2,267.6c0-0.9,0.2-1.8,0.5-2.7s0.8-1.6,1.4-2.2c0.6-0.6,1.3-1.1,2.2-1.5c0.8-0.4,1.7-0.6,2.8-0.6
			c1.3,0,2.4,0.3,3.3,0.9c0.9,0.5,1.7,1.4,2.2,2.4l-1.7,0.5c-0.4-0.7-0.9-1.2-1.6-1.6c-0.7-0.4-1.4-0.6-2.3-0.6
			c-0.7,0-1.4,0.1-1.9,0.4c-0.6,0.3-1.1,0.7-1.6,1.1c-0.4,0.5-0.8,1-1,1.7c-0.3,0.7-0.4,1.4-0.4,2.2c0,0.8,0.1,1.5,0.4,2.2
			s0.6,1.2,1,1.7c0.5,0.5,1,0.9,1.6,1.2c0.6,0.3,1.2,0.4,1.9,0.4c0.4,0,0.9-0.1,1.3-0.2c0.4-0.1,0.8-0.3,1.2-0.5
			c0.4-0.2,0.7-0.4,0.9-0.7c0.3-0.3,0.5-0.6,0.6-0.9l1.7,0.5c-0.2,0.5-0.5,0.9-0.8,1.4c-0.4,0.4-0.8,0.7-1.3,1
			c-0.5,0.3-1,0.6-1.6,0.7c-0.6,0.2-1.2,0.3-1.9,0.3c-1,0-1.9-0.2-2.7-0.6s-1.6-0.9-2.2-1.6c-0.6-0.7-1-1.4-1.4-2.2
			C557.4,269.5,557.2,268.6,557.2,267.6z"/>
		<path class="st0" d="M579,273.8c-0.1,0.1-0.2,0.1-0.4,0.2c-0.2,0.1-0.4,0.2-0.7,0.2c-0.3,0.1-0.6,0.2-0.9,0.3
			c-0.3,0.1-0.7,0.1-1,0.1c-0.4,0-0.7-0.1-1.1-0.2c-0.4-0.1-0.7-0.3-0.9-0.5c-0.3-0.2-0.5-0.5-0.6-0.8c-0.1-0.3-0.3-0.7-0.3-1.1
			v-9.8h-1.8v-1.4h1.8v-4.6h1.8v4.6h3.1v1.4h-3.1v9.2c0.1,0.5,0.2,0.9,0.6,1.1c0.3,0.3,0.7,0.4,1.1,0.4c0.5,0,0.9-0.1,1.3-0.3
			c0.4-0.2,0.6-0.3,0.7-0.4L579,273.8z"/>
		<path class="st0" d="M586.6,274.7c-1,0-1.9-0.2-2.7-0.6c-0.8-0.4-1.5-0.9-2.1-1.6c-0.6-0.6-1-1.4-1.4-2.2
			c-0.3-0.9-0.5-1.7-0.5-2.7c0-0.9,0.2-1.8,0.5-2.7c0.3-0.9,0.8-1.6,1.4-2.2c0.6-0.6,1.3-1.2,2.1-1.5c0.8-0.4,1.8-0.6,2.7-0.6
			c1,0,1.9,0.2,2.7,0.6c0.8,0.4,1.5,0.9,2.1,1.5c0.6,0.6,1,1.4,1.4,2.2c0.4,0.9,0.5,1.7,0.5,2.7c0,0.9-0.2,1.9-0.5,2.7
			c-0.3,0.9-0.8,1.6-1.4,2.2c-0.6,0.6-1.3,1.2-2.1,1.6C588.5,274.5,587.6,274.7,586.6,274.7z M581.7,267.7c0,0.7,0.1,1.5,0.4,2.1
			c0.3,0.7,0.6,1.2,1,1.7c0.4,0.5,1,0.9,1.6,1.2c0.6,0.3,1.2,0.4,1.9,0.4c0.7,0,1.3-0.1,1.9-0.4c0.6-0.3,1.1-0.7,1.6-1.2
			c0.4-0.5,0.8-1,1-1.7s0.4-1.4,0.4-2.1c0-0.8-0.1-1.4-0.4-2.1c-0.3-0.7-0.6-1.2-1-1.7c-0.4-0.5-1-0.9-1.6-1.2
			c-0.6-0.3-1.2-0.4-1.9-0.4c-0.7,0-1.3,0.1-1.9,0.4c-0.6,0.3-1.1,0.7-1.6,1.2c-0.4,0.5-0.8,1.1-1,1.7S581.7,266.9,581.7,267.7z"/>
		<path class="st0" d="M603.1,262.4c-1.2,0.1-2.2,0.4-3.1,1c-0.9,0.6-1.5,1.5-1.9,2.6v8.4h-1.8v-13.6h1.7v3.3c0.5-1,1.2-1.9,2-2.5
			c0.9-0.6,1.7-0.9,2.7-0.9c0.1,0,0.3,0,0.3,0V262.4z"/>
	</g>
</g>
</svg>
